# xmcd
#
# Track frame offsets:
# 183
# 16020
# 29535
# 47608
# 59510
# 73233
# 87350
# 102718
# 118798
# 133045
# 153898
#
# Disc length: 2267 seconds
#
#
# Revision: 4
# Processed by: cddbd v1.5.2PL0 Copyright (c) Steve Scherf et al.
# Submitted via: FreeRIP 2.944 
#
DISCID=9708d90b
DTITLE=譚詠麟 - 愛人•女神
DYEAR=1989
DGENRE=Pop
TTITLE0=柔柔河畔
TTITLE1=將軍抽車
TTITLE2=樣樣做到好
TTITLE3=愛人•女神
TTITLE4=無法不想你
TTITLE5=離別酒
TTITLE6=雨絲•情愁
TTITLE7=我愛大自然
TTITLE8=Hold on Mary - 諗真亦唔遲
TTITLE9=請說聲再會
TTITLE10=那次到海邊
EXTD=
EXTT0=
EXTT1=
EXTT2=
EXTT3=
EXTT4=
EXTT5=
EXTT6=
EXTT7=
EXTT8=
EXTT9=
EXTT10=
PLAYORDER=
